<svg width="87" height="18" viewBox="0 0 87 18" fill="none" xmlns="http://www.w3.org/2000/svg">
<path d="M2.472 17V1.976H0.408V0.439999H8.376C9.88 0.439999 11.128 0.727999 12.12 1.304C13.128 1.88 13.872 2.776 14.352 3.992C14.848 5.208 15.096 6.784 15.096 8.72C15.096 10.64 14.848 12.216 14.352 13.448C13.872 14.664 13.128 15.56 12.12 16.136C11.128 16.712 9.88 17 8.376 17H2.472ZM4.392 15.464H8.208C9.872 15.464 11.096 15.024 11.88 14.144C12.664 13.248 13.056 11.808 13.056 9.824V7.616C13.056 5.632 12.664 4.2 11.88 3.32C11.096 2.424 9.872 1.976 8.208 1.976H4.392V15.464ZM23.4366 17.24C22.2206 17.24 21.1886 16.984 20.3406 16.472C19.4926 15.96 18.8446 15.208 18.3966 14.216C17.9486 13.224 17.7246 12.016 17.7246 10.592C17.7246 9.152 17.9486 7.944 18.3966 6.968C18.8446 5.976 19.4926 5.224 20.3406 4.712C21.1886 4.2 22.2206 3.944 23.4366 3.944C24.5886 3.944 25.5726 4.184 26.3886 4.664C27.2206 5.128 27.8526 5.816 28.2846 6.728C28.7166 7.64 28.9326 8.768 28.9326 10.112V10.832H19.0206V9.536H28.1406L27.1326 10.448V9.992C27.1326 8.44 26.8286 7.304 26.2206 6.584C25.6286 5.864 24.7006 5.504 23.4366 5.504C22.1566 5.504 21.2126 5.864 20.6046 6.584C20.0126 7.304 19.7166 8.44 19.7166 9.992V11.168C19.7166 12.704 20.0126 13.84 20.6046 14.576C21.2126 15.296 22.1566 15.656 23.4366 15.656C24.2846 15.656 24.9486 15.52 25.4286 15.248C25.9086 14.976 26.2526 14.648 26.4606 14.264C26.6686 13.864 26.7726 13.488 26.7726 13.136V13.088H28.7406C28.4526 14.448 27.8526 15.48 26.9406 16.184C26.0446 16.888 24.8766 17.24 23.4366 17.24ZM34.6343 17L30.5543 4.184H32.5463L36.0742 15.368H36.6503L40.1783 4.184H42.0983L38.0183 17H34.6343ZM50.8631 17.24C49.4071 17.24 48.1751 16.928 47.1671 16.304C46.1591 15.664 45.3831 14.712 44.8391 13.448C44.3111 12.184 44.0471 10.608 44.0471 8.72C44.0471 6.816 44.3111 5.24 44.8391 3.992C45.3831 2.728 46.1591 1.784 47.1671 1.16C48.1751 0.519999 49.4071 0.199999 50.8631 0.199999C52.7191 0.199999 54.2071 0.703999 55.3271 1.712C56.4631 2.72 57.1591 4.208 57.4151 6.176H55.4471V5.84C55.4471 5.104 55.2871 4.44 54.9671 3.848C54.6471 3.24 54.1511 2.76 53.4791 2.408C52.8071 2.04 51.9351 1.856 50.8631 1.856C49.2471 1.856 48.0471 2.32 47.2631 3.248C46.4951 4.176 46.1111 5.624 46.1111 7.592V9.848C46.1111 11.816 46.4951 13.264 47.2631 14.192C48.0471 15.12 49.2471 15.584 50.8631 15.584C51.9351 15.584 52.8071 15.4 53.4791 15.032C54.1511 14.664 54.6471 14.168 54.9671 13.544C55.2871 12.92 55.4471 12.224 55.4471 11.456V11.072H57.4391C57.1991 13.104 56.5111 14.64 55.3751 15.68C54.2551 16.72 52.7511 17.24 50.8631 17.24ZM65.7658 17.24C64.5498 17.24 63.5098 16.984 62.6458 16.472C61.7818 15.96 61.1178 15.208 60.6538 14.216C60.2058 13.224 59.9818 12.016 59.9818 10.592C59.9818 9.152 60.2058 7.944 60.6538 6.968C61.1178 5.976 61.7818 5.224 62.6458 4.712C63.5098 4.2 64.5498 3.944 65.7658 3.944C66.9818 3.944 68.0138 4.2 68.8618 4.712C69.7258 5.224 70.3818 5.976 70.8298 6.968C71.2938 7.944 71.5258 9.152 71.5258 10.592C71.5258 12.016 71.2938 13.224 70.8298 14.216C70.3818 15.208 69.7258 15.96 68.8618 16.472C68.0138 16.984 66.9818 17.24 65.7658 17.24ZM65.7658 15.656C67.0618 15.656 68.0138 15.296 68.6218 14.576C69.2298 13.84 69.5338 12.704 69.5338 11.168V10.016C69.5338 8.48 69.2298 7.352 68.6218 6.632C68.0138 5.896 67.0618 5.528 65.7658 5.528C64.4698 5.528 63.5098 5.896 62.8858 6.632C62.2778 7.352 61.9738 8.48 61.9738 10.016V11.168C61.9738 12.704 62.2778 13.84 62.8858 14.576C63.5098 15.296 64.4698 15.656 65.7658 15.656ZM75.054 17V5.648H73.278V4.184H76.59V6.272H77.166C77.518 5.472 77.99 4.888 78.582 4.52C79.174 4.136 79.926 3.944 80.838 3.944C82.198 3.944 83.23 4.352 83.934 5.168C84.638 5.968 84.99 7.16 84.99 8.744V15.536H86.766V17H83.118V9.152C83.118 7.888 82.87 6.968 82.374 6.392C81.878 5.816 81.094 5.528 80.022 5.528C78.95 5.528 78.158 5.816 77.646 6.392C77.15 6.968 76.902 7.888 76.902 9.152V17H75.054Z" fill="url(#paint0_linear_26_203)"/>
<defs>
<linearGradient id="paint0_linear_26_203" x1="0" y1="2.5" x2="88" y2="2.5" gradientUnits="userSpaceOnUse">
<stop/>
<stop offset="1" stop-color="#04007E"/>
</linearGradient>
</defs>
</svg>
