<svg width="114" height="15" viewBox="0 0 114 15" fill="none" xmlns="http://www.w3.org/2000/svg">
<path d="M2.06 14V1.48H0.34V0.199999H6.98C8.23333 0.199999 9.27333 0.439999 10.1 0.919999C10.94 1.4 11.56 2.14667 11.96 3.16C12.3733 4.17333 12.58 5.48667 12.58 7.1C12.58 8.7 12.3733 10.0133 11.96 11.04C11.56 12.0533 10.94 12.8 10.1 13.28C9.27333 13.76 8.23333 14 6.98 14H2.06ZM3.66 12.72H6.84C8.22667 12.72 9.24667 12.3533 9.9 11.62C10.5533 10.8733 10.88 9.67333 10.88 8.02V6.18C10.88 4.52667 10.5533 3.33333 9.9 2.6C9.24667 1.85333 8.22667 1.48 6.84 1.48H3.66V12.72ZM19.5305 14.2C18.5171 14.2 17.6571 13.9867 16.9505 13.56C16.2438 13.1333 15.7038 12.5067 15.3305 11.68C14.9571 10.8533 14.7705 9.84667 14.7705 8.66C14.7705 7.46 14.9571 6.45333 15.3305 5.64C15.7038 4.81333 16.2438 4.18667 16.9505 3.76C17.6571 3.33333 18.5171 3.12 19.5305 3.12C20.4905 3.12 21.3105 3.32 21.9905 3.72C22.6838 4.10667 23.2105 4.68 23.5705 5.44C23.9305 6.2 24.1105 7.14 24.1105 8.26V8.86H15.8505V7.78H23.4505L22.6105 8.54V8.16C22.6105 6.86667 22.3571 5.92 21.8505 5.32C21.3571 4.72 20.5838 4.42 19.5305 4.42C18.4638 4.42 17.6771 4.72 17.1705 5.32C16.6771 5.92 16.4305 6.86667 16.4305 8.16V9.14C16.4305 10.42 16.6771 11.3667 17.1705 11.98C17.6771 12.58 18.4638 12.88 19.5305 12.88C20.2371 12.88 20.7905 12.7667 21.1905 12.54C21.5905 12.3133 21.8771 12.04 22.0505 11.72C22.2238 11.3867 22.3105 11.0733 22.3105 10.78V10.74H23.9505C23.7105 11.8733 23.2105 12.7333 22.4505 13.32C21.7038 13.9067 20.7305 14.2 19.5305 14.2ZM28.8619 14L25.4619 3.32H27.1219L30.0619 12.64H30.5419L33.4819 3.32H35.0819L31.6819 14H28.8619ZM42.3859 14.2C41.1726 14.2 40.1459 13.94 39.3059 13.42C38.4659 12.8867 37.8193 12.0933 37.3659 11.04C36.9259 9.98667 36.7059 8.67333 36.7059 7.1C36.7059 5.51333 36.9259 4.2 37.3659 3.16C37.8193 2.10667 38.4659 1.32 39.3059 0.799999C40.1459 0.266666 41.1726 -9.53674e-07 42.3859 -9.53674e-07C43.9326 -9.53674e-07 45.1726 0.419999 46.1059 1.26C47.0526 2.1 47.6326 3.34 47.8459 4.98H46.2059V4.7C46.2059 4.08667 46.0726 3.53333 45.8059 3.04C45.5393 2.53333 45.1259 2.13333 44.5659 1.84C44.0059 1.53333 43.2793 1.38 42.3859 1.38C41.0393 1.38 40.0393 1.76667 39.3859 2.54C38.7459 3.31333 38.4259 4.52 38.4259 6.16V8.04C38.4259 9.68 38.7459 10.8867 39.3859 11.66C40.0393 12.4333 41.0393 12.82 42.3859 12.82C43.2793 12.82 44.0059 12.6667 44.5659 12.36C45.1259 12.0533 45.5393 11.64 45.8059 11.12C46.0726 10.6 46.2059 10.02 46.2059 9.38V9.06H47.8659C47.6659 10.7533 47.0926 12.0333 46.1459 12.9C45.2126 13.7667 43.9593 14.2 42.3859 14.2ZM54.8048 14.2C53.7915 14.2 52.9248 13.9867 52.2048 13.56C51.4848 13.1333 50.9315 12.5067 50.5448 11.68C50.1715 10.8533 49.9848 9.84667 49.9848 8.66C49.9848 7.46 50.1715 6.45333 50.5448 5.64C50.9315 4.81333 51.4848 4.18667 52.2048 3.76C52.9248 3.33333 53.7915 3.12 54.8048 3.12C55.8182 3.12 56.6782 3.33333 57.3848 3.76C58.1048 4.18667 58.6515 4.81333 59.0248 5.64C59.4115 6.45333 59.6048 7.46 59.6048 8.66C59.6048 9.84667 59.4115 10.8533 59.0248 11.68C58.6515 12.5067 58.1048 13.1333 57.3848 13.56C56.6782 13.9867 55.8182 14.2 54.8048 14.2ZM54.8048 12.88C55.8848 12.88 56.6782 12.58 57.1848 11.98C57.6915 11.3667 57.9448 10.42 57.9448 9.14V8.18C57.9448 6.9 57.6915 5.96 57.1848 5.36C56.6782 4.74667 55.8848 4.44 54.8048 4.44C53.7248 4.44 52.9248 4.74667 52.4048 5.36C51.8982 5.96 51.6448 6.9 51.6448 8.18V9.14C51.6448 10.42 51.8982 11.3667 52.4048 11.98C52.9248 12.58 53.7248 12.88 54.8048 12.88ZM62.545 14V4.54H61.065V3.32H63.825V5.06H64.305C64.5983 4.39333 64.9917 3.90667 65.485 3.6C65.9783 3.28 66.605 3.12 67.365 3.12C68.4983 3.12 69.3583 3.46 69.945 4.14C70.5317 4.80667 70.825 5.8 70.825 7.12V12.78H72.305V14H69.265V7.46C69.265 6.40667 69.0583 5.64 68.645 5.16C68.2317 4.68 67.5783 4.44 66.685 4.44C65.7917 4.44 65.1317 4.68 64.705 5.16C64.2917 5.64 64.085 6.40667 64.085 7.46V14H62.545ZM74.5958 14V4.54H73.1158V3.32H75.8758V5.06H76.3558C76.6491 4.39333 77.0424 3.90667 77.5358 3.6C78.0291 3.28 78.6558 3.12 79.4158 3.12C80.5491 3.12 81.4091 3.46 81.9958 4.14C82.5824 4.80667 82.8758 5.8 82.8758 7.12V12.78H84.3558V14H81.3158V7.46C81.3158 6.40667 81.1091 5.64 80.6958 5.16C80.2824 4.68 79.6291 4.44 78.7358 4.44C77.8424 4.44 77.1824 4.68 76.7558 5.16C76.3424 5.64 76.1358 6.40667 76.1358 7.46V14H74.5958ZM90.5266 14.2C89.5132 14.2 88.6532 13.9867 87.9466 13.56C87.2399 13.1333 86.6999 12.5067 86.3266 11.68C85.9532 10.8533 85.7666 9.84667 85.7666 8.66C85.7666 7.46 85.9532 6.45333 86.3266 5.64C86.6999 4.81333 87.2399 4.18667 87.9466 3.76C88.6532 3.33333 89.5132 3.12 90.5266 3.12C91.4866 3.12 92.3066 3.32 92.9866 3.72C93.6799 4.10667 94.2066 4.68 94.5666 5.44C94.9266 6.2 95.1066 7.14 95.1066 8.26V8.86H86.8466V7.78H94.4466L93.6066 8.54V8.16C93.6066 6.86667 93.3532 5.92 92.8466 5.32C92.3532 4.72 91.5799 4.42 90.5266 4.42C89.4599 4.42 88.6732 4.72 88.1666 5.32C87.6732 5.92 87.4266 6.86667 87.4266 8.16V9.14C87.4266 10.42 87.6732 11.3667 88.1666 11.98C88.6732 12.58 89.4599 12.88 90.5266 12.88C91.2332 12.88 91.7866 12.7667 92.1866 12.54C92.5866 12.3133 92.8732 12.04 93.0466 11.72C93.2199 11.3867 93.3066 11.0733 93.3066 10.78V10.74H94.9466C94.7066 11.8733 94.2066 12.7333 93.4466 13.32C92.6999 13.9067 91.7266 14.2 90.5266 14.2ZM101.833 14.2C100.86 14.2 100.02 13.9933 99.3133 13.58C98.6199 13.1533 98.0866 12.5267 97.7133 11.7C97.3399 10.8733 97.1533 9.86 97.1533 8.66C97.1533 7.44667 97.3399 6.43333 97.7133 5.62C98.0866 4.79333 98.6199 4.17333 99.3133 3.76C100.02 3.33333 100.86 3.12 101.833 3.12C103.06 3.12 104.06 3.44 104.833 4.08C105.607 4.70667 106.1 5.63333 106.313 6.86H104.733V6.8C104.733 6.44 104.633 6.08 104.433 5.72C104.247 5.36 103.94 5.06 103.513 4.82C103.087 4.56667 102.527 4.44 101.833 4.44C100.82 4.44 100.06 4.74 99.5533 5.34C99.0599 5.92667 98.8133 6.86 98.8133 8.14V9.18C98.8133 10.4467 99.0599 11.38 99.5533 11.98C100.06 12.58 100.82 12.88 101.833 12.88C102.527 12.88 103.087 12.7533 103.513 12.5C103.94 12.2467 104.247 11.9267 104.433 11.54C104.633 11.1533 104.733 10.76 104.733 10.36V10.3H106.333C106.147 11.5667 105.66 12.5333 104.873 13.2C104.1 13.8667 103.087 14.2 101.833 14.2ZM110.824 14C110.09 14 109.724 13.6333 109.724 12.9V3.32L110.324 1.18H111.284V12.78H113.944V14H110.824ZM107.664 4.54V3.32H113.944V4.54H107.664Z" fill="url(#paint0_linear_26_201)"/>
<defs>
<linearGradient id="paint0_linear_26_201" x1="0" y1="7.5" x2="123.925" y2="7.5" gradientUnits="userSpaceOnUse">
<stop/>
<stop offset="1" stop-color="#04007E"/>
</linearGradient>
</defs>
</svg>
