<svg width="236" height="47" viewBox="0 0 236 47" fill="none" xmlns="http://www.w3.org/2000/svg">
<path d="M3.708 34V11.464H0.612V9.16H12.564C14.82 9.16 16.692 9.592 18.18 10.456C19.692 11.32 20.808 12.664 21.528 14.488C22.272 16.312 22.644 18.676 22.644 21.58C22.644 24.46 22.272 26.824 21.528 28.672C20.808 30.496 19.692 31.84 18.18 32.704C16.692 33.568 14.82 34 12.564 34H3.708ZM6.588 31.696H12.312C14.808 31.696 16.644 31.036 17.82 29.716C18.996 28.372 19.584 26.212 19.584 23.236V19.924C19.584 16.948 18.996 14.8 17.82 13.48C16.644 12.136 14.808 11.464 12.312 11.464H6.588V31.696ZM35.1548 34.36C33.3308 34.36 31.7828 33.976 30.5108 33.208C29.2388 32.44 28.2668 31.312 27.5948 29.824C26.9228 28.336 26.5868 26.524 26.5868 24.388C26.5868 22.228 26.9228 20.416 27.5948 18.952C28.2668 17.464 29.2388 16.336 30.5108 15.568C31.7828 14.8 33.3308 14.416 35.1548 14.416C36.8828 14.416 38.3588 14.776 39.5828 15.496C40.8308 16.192 41.7788 17.224 42.4268 18.592C43.0748 19.96 43.3988 21.652 43.3988 23.668V24.748H28.5308V22.804H42.2108L40.6988 24.172V23.488C40.6988 21.16 40.2428 19.456 39.3308 18.376C38.4428 17.296 37.0508 16.756 35.1548 16.756C33.2348 16.756 31.8188 17.296 30.9068 18.376C30.0188 19.456 29.5748 21.16 29.5748 23.488V25.252C29.5748 27.556 30.0188 29.26 30.9068 30.364C31.8188 31.444 33.2348 31.984 35.1548 31.984C36.4268 31.984 37.4228 31.78 38.1428 31.372C38.8628 30.964 39.3788 30.472 39.6908 29.896C40.0028 29.296 40.1588 28.732 40.1588 28.204V28.132H43.1108C42.6788 30.172 41.7788 31.72 40.4108 32.776C39.0668 33.832 37.3148 34.36 35.1548 34.36ZM51.9514 34L45.8314 14.776H48.8194L54.1114 31.552H54.9754L60.2674 14.776H63.1474L57.0274 34H51.9514ZM76.2947 34.36C74.1107 34.36 72.2627 33.892 70.7507 32.956C69.2387 31.996 68.0747 30.568 67.2587 28.672C66.4667 26.776 66.0707 24.412 66.0707 21.58C66.0707 18.724 66.4667 16.36 67.2587 14.488C68.0747 12.592 69.2387 11.176 70.7507 10.24C72.2627 9.28 74.1107 8.8 76.2947 8.8C79.0787 8.8 81.3107 9.556 82.9907 11.068C84.6947 12.58 85.7387 14.812 86.1227 17.764H83.1707V17.26C83.1707 16.156 82.9307 15.16 82.4507 14.272C81.9707 13.36 81.2267 12.64 80.2187 12.112C79.2107 11.56 77.9027 11.284 76.2947 11.284C73.8707 11.284 72.0707 11.98 70.8947 13.372C69.7427 14.764 69.1667 16.936 69.1667 19.888V23.272C69.1667 26.224 69.7427 28.396 70.8947 29.788C72.0707 31.18 73.8707 31.876 76.2947 31.876C77.9027 31.876 79.2107 31.6 80.2187 31.048C81.2267 30.496 81.9707 29.752 82.4507 28.816C82.9307 27.88 83.1707 26.836 83.1707 25.684V25.108H86.1587C85.7987 28.156 84.7667 30.46 83.0627 32.02C81.3827 33.58 79.1267 34.36 76.2947 34.36ZM98.6487 34.36C96.8247 34.36 95.2647 33.976 93.9687 33.208C92.6727 32.44 91.6767 31.312 90.9807 29.824C90.3087 28.336 89.9727 26.524 89.9727 24.388C89.9727 22.228 90.3087 20.416 90.9807 18.952C91.6767 17.464 92.6727 16.336 93.9687 15.568C95.2647 14.8 96.8247 14.416 98.6487 14.416C100.473 14.416 102.021 14.8 103.293 15.568C104.589 16.336 105.573 17.464 106.245 18.952C106.941 20.416 107.289 22.228 107.289 24.388C107.289 26.524 106.941 28.336 106.245 29.824C105.573 31.312 104.589 32.44 103.293 33.208C102.021 33.976 100.473 34.36 98.6487 34.36ZM98.6487 31.984C100.593 31.984 102.021 31.444 102.933 30.364C103.845 29.26 104.301 27.556 104.301 25.252V23.524C104.301 21.22 103.845 19.528 102.933 18.448C102.021 17.344 100.593 16.792 98.6487 16.792C96.7047 16.792 95.2647 17.344 94.3287 18.448C93.4167 19.528 92.9607 21.22 92.9607 23.524V25.252C92.9607 27.556 93.4167 29.26 94.3287 30.364C95.2647 31.444 96.7047 31.984 98.6487 31.984ZM112.581 34V16.972H109.917V14.776H114.885V17.908H115.749C116.277 16.708 116.985 15.832 117.873 15.28C118.761 14.704 119.889 14.416 121.257 14.416C123.297 14.416 124.845 15.028 125.901 16.252C126.957 17.452 127.485 19.24 127.485 21.616V31.804H130.149V34H124.677V22.228C124.677 20.332 124.305 18.952 123.561 18.088C122.817 17.224 121.641 16.792 120.033 16.792C118.425 16.792 117.237 17.224 116.469 18.088C115.725 18.952 115.353 20.332 115.353 22.228V34H112.581ZM134.272 34V16.972H131.608V14.776H136.576V17.908H137.44C137.968 16.708 138.676 15.832 139.564 15.28C140.452 14.704 141.58 14.416 142.948 14.416C144.988 14.416 146.536 15.028 147.592 16.252C148.648 17.452 149.176 19.24 149.176 21.616V31.804H151.84V34H146.368V22.228C146.368 20.332 145.996 18.952 145.252 18.088C144.508 17.224 143.332 16.792 141.724 16.792C140.116 16.792 138.928 17.224 138.16 18.088C137.416 18.952 137.044 20.332 137.044 22.228V34H134.272ZM162.948 34.36C161.124 34.36 159.576 33.976 158.304 33.208C157.032 32.44 156.06 31.312 155.388 29.824C154.716 28.336 154.38 26.524 154.38 24.388C154.38 22.228 154.716 20.416 155.388 18.952C156.06 17.464 157.032 16.336 158.304 15.568C159.576 14.8 161.124 14.416 162.948 14.416C164.676 14.416 166.152 14.776 167.376 15.496C168.624 16.192 169.572 17.224 170.22 18.592C170.868 19.96 171.192 21.652 171.192 23.668V24.748H156.324V22.804H170.004L168.492 24.172V23.488C168.492 21.16 168.036 19.456 167.124 18.376C166.236 17.296 164.844 16.756 162.948 16.756C161.028 16.756 159.612 17.296 158.7 18.376C157.812 19.456 157.368 21.16 157.368 23.488V25.252C157.368 27.556 157.812 29.26 158.7 30.364C159.612 31.444 161.028 31.984 162.948 31.984C164.22 31.984 165.216 31.78 165.936 31.372C166.656 30.964 167.172 30.472 167.484 29.896C167.796 29.296 167.952 28.732 167.952 28.204V28.132H170.904C170.472 30.172 169.572 31.72 168.204 32.776C166.86 33.832 165.108 34.36 162.948 34.36ZM183.3 34.36C181.548 34.36 180.036 33.988 178.764 33.244C177.516 32.476 176.556 31.348 175.884 29.86C175.212 28.372 174.876 26.548 174.876 24.388C174.876 22.204 175.212 20.38 175.884 18.916C176.556 17.428 177.516 16.312 178.764 15.568C180.036 14.8 181.548 14.416 183.3 14.416C185.508 14.416 187.308 14.992 188.7 16.144C190.092 17.272 190.98 18.94 191.364 21.148H188.52V21.04C188.52 20.392 188.34 19.744 187.98 19.096C187.644 18.448 187.092 17.908 186.324 17.476C185.556 17.02 184.548 16.792 183.3 16.792C181.476 16.792 180.108 17.332 179.196 18.412C178.308 19.468 177.864 21.148 177.864 23.452V25.324C177.864 27.604 178.308 29.284 179.196 30.364C180.108 31.444 181.476 31.984 183.3 31.984C184.548 31.984 185.556 31.756 186.324 31.3C187.092 30.844 187.644 30.268 187.98 29.572C188.34 28.876 188.52 28.168 188.52 27.448V27.34H191.4C191.064 29.62 190.188 31.36 188.772 32.56C187.38 33.76 185.556 34.36 183.3 34.36ZM199.483 34C198.163 34 197.503 33.34 197.503 32.02V14.776L198.583 10.924H200.311V31.804H205.099V34H199.483ZM193.795 16.972V14.776H205.099V16.972H193.795Z" fill="url(#paint0_linear_9_73)"/>
<defs>
<linearGradient id="paint0_linear_9_73" x1="0" y1="23.5" x2="210.405" y2="23.5" gradientUnits="userSpaceOnUse">
<stop/>
<stop offset="1" stop-color="#04007E"/>
</linearGradient>
</defs>
</svg>
